**ABCDEFGHIJKLMNOPQRSTUVWXYZabcdefghijklmnopqrstuvwxyz**************************
**PARASOLID !"#$%&'()*+,-./:;<=>?@[\]^_`{|}~0123456789**************************
**PART1;
MC=unknown;
MC_MODEL=unknown;
MC_ID=unknown;
OS=unknown;
OS_RELEASE=unknown;
FRU=XTAdapter;
APPL=JumpStart;
SITE=unknown;
USER=unknown;
FORMAT=text
GUISE=transmit
KEY=unknown
FILE=unknown
DATE=unknown;
**PART2;
SCH=SCH_2200216_20000;USFLD_SIZE=0;**PART3;
**END_OF_HEADER*****************************************************************
T51 : TRANSMIT FILE created by modeller version 220021623 SCH_2200216_20000_1300
6186 0 12 27 CCCCCCCCCCCCCCCCCCCCCCCA16 index_map_offset0 0 1 dA9 index_map82 0
 A17 node_id_index_map82 0 A20 schema_embedding_map82 0 Z1 416 2 3 0 0 0 0 1e3 1
e-8 0 4 0 1 0 1 1 5 6 7 8 9 10 11 0 0 0 0 81 255 1 2 416 12 1 13 0 0 0 14 70 11
 CI9 list_type0 0 1 uI10 notransmit0 0 1 lCCCDCCDI12 finger_index0 0 1 dI12 fing
er_block1012 0 CZ3 0 4 T1 0 0 7 20 1 15 15 13 255 5 3 0 1 0 16 0 0 17 0 51 255 6
 149 0 18 19 0 0 +215861145499468e-33 .02223 .00635 0 0 -1 .001167500151877508 -
1 0 0 30 255 7 337 0 1 20 0 21 +-.00820922583100014 -.00299936847613628 .00635 0
 0 -1 29 255 8 218 0 11 22 0 -.00820541880368192 .003009767807686025 0 19 255 9
 1 0 1 17 0 23 V16 255 10 224 24 ?25 0 26 27 26 26 1 18 255 11 215 0 28 0 29 8 ?
1 17 255 28 0 30 31 32 11 33 26 0 34 -18 29 211 0 35 11 36 22 ?1 17 35 0 37 38 3
9 29 40 41 0 42 -18 36 207 0 43 29 44 45 ?1 29 22 214 0 29 45 8 -.00766403197541
703 -.00420121576210807 0 29 45 210 0 36 46 22 .00766403197541704 -.004201215762
108045 0 29 46 206 0 44 47 45 .00820541880368192 .003009767807686025 0 18 44 203
 0 48 36 49 46 ?1 29 47 102 0 50 51 46 -.001097676335863732 .022627697455761 0 1
8 50 85 0 31 52 53 47 ?1 29 51 103 0 53 54 47 -.00822903849404379 .0029445755999
03245 0 18 53 86 0 55 50 56 51 1e-8 1 29 54 104 0 56 57 51 -.00820922583100014 -
.00299936847613628 0 18 56 87 0 39 53 58 54 1e-8 1 29 57 105 0 58 59 54 -.003444
648141507445 -.01350259536741152 0 18 58 88 0 60 56 61 57 ?1 29 59 106 0 61 62 5
7 .00344464814150745 -.01350259536741152 0 18 61 89 0 63 58 64 59 ?1 29 62 108 0
 64 65 59 .00822903849404379 .002944575599903255 0 18 64 91 0 66 61 67 62 1e-8 1
 29 65 109 0 67 68 62 .001097676335863732 .022627697455761 0 18 67 92 0 69 64 70
 65 ?1 29 68 44 0 49 71 65 -.001097676335863732 .022627697455761 .00635 18 49 41
 0 72 44 73 68 ?1 29 71 38 0 73 74 68 -.00822903849404379 .002944575599903245 .0
0635 18 73 35 0 75 49 76 71 ?1 29 74 32 0 76 77 71 -.00820922583100014 -.0029993
6847613628 .00635 18 76 29 0 78 73 79 74 ?1 29 77 26 0 79 80 74 -.00344464814150
7445 -.01350259536741152 .00635 18 79 23 0 81 76 82 77 ?1 29 80 20 0 82 83 77 .0
0344464814150745 -.01350259536741152 .00635 18 82 17 0 84 79 85 80 ?1 29 83 14 0
 85 86 80 .00820922583100014 -.00299936847613627 .00635 18 85 11 0 87 82 88 83 ?
1 29 86 8 0 88 89 83 .00822903849404379 .002944575599903255 .00635 18 88 5 0 90
 85 52 86 ?1 29 89 4 0 52 91 86 .001097676335863732 .022627697455761 .00635 18 5
2 2 0 92 88 50 89 ?1 29 91 316 0 70 0 89 .00820922583100014 -.00299936847613627
 0 18 70 267 0 93 67 0 91 1e-8 1 17 93 0 94 87 95 70 96 97 0 98 -15 255 94 126 0
 93 99 0 17 87 0 94 100 93 85 98 101 0 102 -17 95 0 94 93 103 36 63 104 0 96 -17
 96 0 105 106 106 36 93 97 0 107 +16 97 73 108 ?96 109 104 110 0 0 1 17 98 0 111
 107 102 70 87 101 0 106 +15 111 120 0 55 112 113 17 107 0 111 25 98 36 106 114
 0 0 +17 102 0 111 98 90 85 115 116 0 117 +16 101 115 0 ?98 118 119 120 0 0 1 17
 106 0 105 96 96 70 107 114 0 0 -15 105 273 0 106 121 0 16 114 235 122 ?107 123
 124 125 0 0 1 81 1 122 237 126 114 0 0 127 128 129 16 123 259 0 ?130 131 114 13
2 0 0 1 16 124 241 128 ?133 114 134 135 0 0 1 133 255 125 307 0 114 132 135 0 +2
7 .00820922583100014 -.00299936847613627 0 .00766403197541704 -.0042012157621080
45 0 .350297410061642 .501439478056716 31 255 132 308 0 123 136 125 0 +0 0 -.009
53 0 0 -1 1 0 0 .00874 133 135 305 0 124 125 137 0 +27 -.00766403197541703 -.004
20121576210807 0 -.00820922583100013 -.002999368476136305 0 2.640153175533075 2.
791295243528145 31 27 229 0 10 138 110 139 +0 0 0 0 0 -1 1 0 0 .00874 30 138 141
 0 140 141 27 0 +.001097676335863732 .022627697455761 .00635 0 0 -1 133 110 320
 0 97 27 120 0 +142 .00820922583100014 -.00299936847613627 0 .00766403197541704
 -.004201215762108045 0 -.01153338526577602 -.0102136605827594 141 255 139 125 1
43 144 27 141 143 145 146 139 27 141 144 135 139 146 27 141 146 137 144 143 27 1
33 137 303 0 134 135 145 0 +27 -.00822903849404379 .00294457559990324 0 -.008205
41880368192 .003009767807686025 0 3.485223584487425 3.493157143188015 16 134 247
 147 ?148 124 149 137 0 0 1 133 145 301 0 149 137 150 0 +27 .00820541880368192 .
003009767807686025 0 .0082290384940434 .002944575599904335 0 5.93162081758136 5.
93955437628182 16 149 253 151 ?152 134 153 145 0 0 1 30 150 7 0 154 145 155 0 +.
001097676335863732 .022627697455761 .00635 .3406401747541065 -.94019374138711 0
 16 154 6 0 ?156 116 157 150 0 0 1 31 155 13 0 116 150 158 0 +0 0 .00635 0 0 -1
 -1 0 0 .00874 16 116 12 0 ?102 159 154 155 0 0 1 30 158 19 0 159 155 160 0 +.00
344464814150745 -.01350259536741152 .00635 -.4131118123341485 -.910680311915216
 0 16 159 18 0 ?100 161 116 158 0 0 1 31 160 25 0 161 158 162 0 +578217176195673
e-32 -.01194 .00635 0 0 -1 1 0 0 .00378249984812249 16 161 24 0 ?163 164 159 160
 0 0 1 30 162 31 0 164 160 165 0 +-.00820922583100014 -.00299936847613628 .00635
 -.4131118123341495 .910680311915216 0 16 164 30 0 ?166 167 161 162 0 0 1 31 165
 37 0 167 162 168 0 +0 0 .00635 0 0 -1 1 0 0 .00874 16 167 36 0 ?169 170 164 165
 0 0 1 30 168 43 0 170 165 171 0 +-.001097676335863732 .022627697455761 .00635 .
3406401747541065 .94019374138711 0 16 170 42 0 ?172 173 167 168 0 0 1 31 171 48
 0 157 168 174 0 +215861145499468e-33 .02223 .00635 0 0 -1 1 0 0 .00116750015187
7508 16 157 47 0 ?175 154 176 171 0 0 1 30 174 101 0 177 171 142 178 +.001097676
335863732 .022627697455761 0 .3406401747541065 -.94019374138711 0 16 177 79 179
 ?32 104 180 174 0 0 1 30 142 99 0 104 174 181 182 +.00344464814150745 -.0135025
9536741152 0 -.4131118123341485 -.910680311915216 0 141 178 183 178 178 174 133
 183 324 0 180 184 185 0 +174 .00820541880368192 .00300976780768602 0 .008229038
49404379 .00294457559990325 0 .0208658373104375 .0209351764316346 16 180 204 186
 ?187 177 131 183 0 0 1 30 184 322 0 1 120 183 188 +.00820922583100014 -.0029993
6847613627 .00635 0 0 -1 133 185 325 0 118 183 189 0 +189 .00822903849404379 .00
2944575599903255 .00635 .00822903849404379 .002944575599903255 0 0 .00635 16 118
 116 0 ?66 140 101 185 0 0 1 30 189 326 0 1 185 190 191 +.00822903849404379 .002
944575599903255 .00635 0 0 -1 133 190 329 0 192 189 193 0 +193 -.008229038494043
79 .002944575599903245 .00635 -.00822903849404379 .002944575599903245 0 0 .00635
 141 191 185 191 191 189 16 192 111 0 ?55 194 173 190 0 0 1 30 193 330 0 1 190 1
95 196 +-.00822903849404379 .002944575599903245 .00635 0 0 -1 133 195 331 0 176
 193 197 0 +198 -.00822903849404379 .00294457559990324 0 -.00820541880368192 .00
300976780768602 0 -.0209351764316346 -.0208658373104375 141 196 190 196 196 193
 16 176 61 199 ?200 157 201 195 0 0 1 133 197 335 0 41 195 20 0 +202 -.007664031
97541703 -.00420121576210807 0 -.00820922583100014 -.00299936847613628 0 -.00131
9724683016624 0 30 198 95 0 201 202 203 204 +-.001097676335863732 .0226276974557
61 0 .3406401747541065 .94019374138711 0 16 201 216 127 ?31 176 205 198 0 0 1 30
 202 97 0 205 181 198 206 +-.00820922583100014 -.00299936847613628 0 -.413111812
3341495 .910680311915216 0 31 203 94 0 131 198 207 0 +215861145499468e-33 .02223
 0 0 0 -1 1 0 0 .001167500151877508 141 204 195 204 204 198 16 131 82 208 ?209 1
80 123 203 0 0 1 30 207 134 0 173 203 210 0 +-.001097676335863732 .0226276974557
61 .00635 0 0 -1 16 173 110 0 ?211 192 170 207 0 0 1 30 210 137 0 212 207 141 0
 +-.003444648141507445 -.01350259536741152 .00635 0 0 -1 16 212 113 0 ?60 119 19
4 210 0 0 1 30 141 138 0 119 210 138 0 +.00344464814150745 -.01350259536741152 .
00635 0 0 -1 16 119 114 0 ?103 101 212 141 0 0 1 17 103 0 94 95 100 61 84 119 0
 213 +17 100 0 94 103 87 82 117 159 0 214 +17 84 0 215 163 213 82 103 119 0 100
 -17 213 0 215 84 60 61 216 109 0 0 -15 215 124 0 213 217 0 17 60 0 215 213 163
 58 81 212 0 38 +17 216 0 218 42 63 58 213 109 0 0 +16 109 70 219 ?216 41 97 181
 0 0 1 81 1 219 72 126 109 0 0 220 108 221 16 41 212 222 ?40 205 109 197 0 0 1 3
1 181 98 0 109 142 202 0 +578217176195673e-32 -.01194 0 0 0 -1 1 0 0 .0037824998
4812249 81 1 222 213 126 41 0 0 223 127 224 17 40 0 225 226 226 56 35 41 0 133 +
16 205 67 220 ?42 201 41 202 0 0 1 81 1 220 69 126 205 0 0 199 219 227 17 42 0 2
18 43 216 29 38 205 0 226 +15 218 225 0 43 228 0 17 43 0 218 63 42 36 25 10 0 95
 -17 38 0 37 81 35 58 42 205 0 216 -17 226 0 225 40 40 29 133 124 0 25 -15 225 2
76 0 226 229 0 17 133 0 111 78 25 56 226 124 0 0 +17 25 0 111 133 107 29 43 10 0
 0 +17 78 0 111 169 133 76 39 194 0 166 -17 169 0 111 55 78 73 230 167 0 231 +17
 39 0 37 35 166 56 78 194 0 40 +16 194 112 0 ?39 212 192 20 0 0 1 17 166 0 37 39
 81 76 232 164 0 230 +15 37 122 0 38 233 0 17 81 0 37 166 38 79 60 212 0 163 -17
 232 0 234 214 230 79 166 164 0 0 -17 230 0 234 232 231 76 169 167 0 0 -15 234 4
9 0 235 236 0 17 231 0 234 230 235 73 172 170 0 0 -17 235 0 234 231 237 49 175 1
57 0 0 -17 172 0 238 211 75 49 231 170 0 235 +15 238 118 0 239 240 0 17 211 0 23
8 34 172 50 72 173 0 241 +17 75 0 238 172 239 73 55 192 0 169 -17 239 0 238 75 3
4 53 200 176 0 242 -17 55 0 111 148 169 53 75 192 0 239 +17 148 0 111 33 55 11 2
42 134 0 0 +17 33 0 111 152 148 44 28 26 0 0 +17 242 0 243 200 200 53 148 134 0
 0 -15 243 279 0 242 244 0 17 200 0 243 242 242 11 239 176 0 148 +14 255 244 288
 245 ?246 229 243 5 247 -248 229 246 229 23 81 1 245 371 249 244 250 0 251 252 0
 14 246 385 253 ?254 244 255 5 256 +0 0 254 244 23 14 229 274 251 ?244 121 225 5
 247 -244 121 244 121 23 50 255 247 294 0 248 257 258 0 +0 0 0 0 0 -1 -1 0 0 14
 248 268 259 ?121 260 261 5 247 -121 244 121 260 23 13 23 150 0 0 0 0 0 0 9 16 1
4 16 285 252 ?228 0 262 5 257 +0 0 228 0 23 81 1 252 410 249 16 263 0 245 253 0
 14 228 221 264 ?18 16 218 5 265 +260 260 18 16 23 15 262 287 0 130 16 266 50 25
7 295 0 16 256 247 0 +0 0 -.00953 0 0 -1 -1 0 0 51 256 398 0 246 267 257 0 -0 0
 1734723475976805e-33 0 0 -1 .00635 -1 0 0 50 267 400 0 254 0 256 0 +0 0 1734723
475976805e-33 0 0 1 1 0 0 14 254 390 268 ?0 246 269 5 267 -0 0 0 246 23 81 1 268
 412 249 254 270 0 253 0 0 15 269 392 0 271 254 0 17 271 0 269 271 271 0 272 153
 0 0 -17 272 0 255 272 272 0 271 153 0 0 +16 153 384 0 ?272 149 273 274 0 0 1 16
 273 381 275 ?276 153 0 136 0 0 1 31 274 402 0 153 0 136 0 +0 0 1734723475976805
e-33 0 0 1 1 0 0 .00635 31 136 401 0 273 274 132 0 +0 0 -.00953 0 0 1 1 0 0 .006
35 81 1 275 383 126 273 0 0 24 0 277 17 276 0 266 276 276 0 278 273 0 0 +15 266
 374 0 276 16 0 17 278 0 279 278 278 0 276 273 0 0 -15 279 389 0 278 246 0 80 25
5 1 126 280 281 9000 0 0 0 0 3 6 0 0 0 FFFFTFTTFFFFFF1 81 1 24 338 126 10 0 0 28
2 275 283 82 255 1 277 17 81 1 282 327 126 26 0 0 151 24 284 82 1 283 17 16 26 2
19 282 ?33 10 140 27 10 10 1 81 1 151 255 126 149 0 0 147 282 285 82 1 284 17 81
 1 147 249 126 134 0 0 128 151 286 82 1 285 17 81 1 128 243 126 124 0 0 122 147
 287 82 1 286 17 82 1 287 17 16 140 117 0 ?69 26 118 138 0 0 1 17 69 0 288 241 1
75 67 92 140 0 289 +15 288 132 0 241 18 0 17 241 0 288 72 69 50 209 131 0 0 -17
 175 0 288 69 72 52 235 157 0 0 +17 92 0 290 156 289 52 69 140 0 237 -17 289 0 2
90 92 48 67 32 177 0 209 -15 290 130 0 289 291 0 17 48 0 290 289 66 44 187 180 0
 32 -17 32 0 30 28 209 44 289 177 0 292 +17 209 0 30 32 31 67 241 131 0 0 +15 30
 220 0 28 260 0 17 31 0 30 209 28 50 34 201 0 211 +17 34 0 238 239 211 11 31 201
 0 200 -14 260 59 293 ?248 236 30 5 265 +228 228 248 236 23 81 1 293 367 249 260
 294 0 295 259 0 14 236 50 296 ?260 240 234 5 258 -0 0 260 240 23 50 265 93 0 26
0 258 297 0 +215861145499468e-33 .02223 0 0 0 -1 -1 0 0 50 258 53 0 236 247 265
 0 +215861145499468e-33 .02223 .00635 0 0 -1 -1 0 0 50 297 142 0 240 265 298 0 +
-.001097676335863732 .022627697455761 .00635 -.94019374138711 .3406401747541065
 0 -.3406401747541065 -.94019374138711 0 14 240 119 295 ?236 112 238 5 297 +0 0
 236 112 23 51 298 143 0 112 297 299 0 +0 0 .00635 0 0 -1 .00874 -1 0 0 14 112 1
21 300 ?240 233 111 5 298 +0 0 240 233 23 50 299 144 0 233 298 301 0 +-.00820922
583100014 -.00299936847613628 .00635 -.910680311915216 -.4131118123341495 0 .413
1118123341495 -.910680311915216 0 14 233 123 302 ?112 217 37 5 299 +0 0 112 217
 23 51 301 145 0 217 299 303 0 +578217176195673e-32 -.01194 .00635 0 0 -1 .00378
249984812249 -1 0 0 14 217 125 304 ?233 99 215 5 301 +0 0 233 99 23 50 303 146 0
 99 301 19 0 +.00344464814150745 -.01350259536741152 .00635 .910680311915216 -.4
131118123341485 0 .4131118123341485 .910680311915216 0 14 99 127 305 ?217 291 94
 5 303 +0 0 217 291 23 50 19 148 0 291 303 6 0 +.001097676335863732 .02262769745
5761 .00635 .94019374138711 .3406401747541065 0 -.3406401747541065 .940193741387
11 0 14 291 131 306 ?99 18 290 5 19 +0 0 99 18 23 81 1 306 362 249 291 307 0 264
 305 0 14 18 133 308 ?291 228 288 5 6 +0 0 291 228 23 81 1 308 193 249 18 309 0
 0 304 0 80 1 249 126 310 9000 1 1 1 1 1 1 1 1 0 FFFFTFTTFFFFFF1 81 1 309 182 31
1 18 312 308 0 307 313 81 1 304 197 249 217 314 0 308 296 0 81 1 314 186 311 217
 315 304 316 317 318 81 1 296 201 249 236 319 0 304 264 0 81 1 319 190 311 236 3
20 296 321 294 322 81 1 264 361 249 228 323 0 296 306 0 81 3 323 223 324 228 325
 264 326 327 328 329 0 80 3 324 330 331 9000 0 0 0 0 3 6 0 0 0 FFFFTFTTFFFFFF1 1
 3 81 1 325 222 311 228 0 323 294 332 333 81 3 326 180 324 260 0 294 320 323 334
 335 0 81 3 327 344 324 112 336 300 323 337 338 339 0 82 1 328 0 82 1 329 9 81 1
 336 188 311 112 340 327 317 321 341 81 1 300 365 249 112 327 0 302 295 0 81 3 3
37 345 324 248 0 332 327 342 343 344 0 82 1 338 0 82 1 339 2 81 1 332 355 311 24
8 337 259 325 345 346 81 3 342 347 324 121 0 345 337 347 348 349 0 82 1 343 0 82
 1 344 10 14 121 271 350 ?229 248 105 5 247 -229 248 229 248 23 81 1 345 356 311
 121 342 350 332 351 352 81 3 347 349 324 229 0 351 342 353 354 355 0 82 1 348 0
 82 1 349 11 81 1 351 357 311 229 347 251 345 250 356 81 3 353 351 324 244 0 250
 347 263 357 358 0 82 1 354 0 82 1 355 12 81 1 250 358 311 244 353 245 351 359 3
60 81 3 263 379 324 16 359 252 353 361 362 363 0 82 1 357 0 82 1 358 13 81 1 359
 378 311 16 0 263 250 364 365 81 3 361 403 324 246 0 364 263 366 367 368 0 82 1
 362 0 82 1 363 14 81 1 364 407 311 246 361 253 359 270 369 81 3 366 405 324 254
 0 270 361 0 370 371 0 82 1 367 0 82 1 368 15 81 1 270 408 311 254 366 268 364 0
 372 82 1 370 0 82 1 371 16 80 1 311 373 374 9000 0 0 0 0 3 6 0 0 0 FFFFTFFFFFFF
FF1 82 1 372 1924 79 255 23 374 SolidEdge/MNKR_ATTR_CID81 1 253 411 249 246 364
 0 252 268 0 82 1 369 1924 82 1 365 2083 82 1 360 2083 81 1 251 370 249 229 351
 0 350 245 0 82 1 356 2083 81 1 350 369 249 121 345 0 259 251 0 81 1 259 368 249
 248 332 0 293 350 0 82 1 352 2083 82 1 346 2083 81 1 302 364 249 233 317 0 305
 300 0 81 1 295 366 249 240 321 0 300 293 0 81 1 321 189 311 240 375 295 336 319
 376 81 3 375 176 324 240 0 321 340 320 377 378 0 82 1 376 2139 81 3 340 174 324
 112 0 336 379 375 380 381 0 81 3 320 178 324 236 0 319 375 326 382 383 0 82 1 3
77 0 82 1 378 7 82 1 382 0 82 1 383 8 81 3 379 172 324 233 0 317 315 340 384 385
 0 82 1 380 0 82 1 381 6 81 1 317 187 311 233 379 302 314 336 386 81 3 315 170 3
24 217 0 314 387 379 388 389 0 82 1 384 0 82 1 385 5 81 3 387 168 324 99 0 316 3
90 315 391 392 0 82 1 388 0 82 1 389 4 81 1 316 185 311 99 387 305 307 314 393 8
1 3 390 164 324 291 0 307 312 387 394 395 0 82 1 391 0 82 1 392 3 81 1 307 183 3
11 291 390 306 309 316 396 81 3 312 161 324 18 0 309 0 390 397 398 0 82 1 394 0
 82 1 395 1 82 1 397 0 82 1 398 0 82 1 396 2139 81 1 305 363 249 99 316 0 306 30
2 0 82 1 393 2139 82 1 386 2139 82 1 341 2139 81 1 294 191 311 260 326 293 319 3
25 399 82 1 334 0 82 1 335 9 82 1 399 2139 82 1 333 2139 79 27 331 MONIKER/MONIK
ER_DATA_ATTRIB82 1 322 2139 82 1 318 2139 82 1 313 2139 79 17 310 SolidEdge/Disp
lay17 292 0 261 187 187 44 152 149 0 33 -15 261 270 0 292 248 0 17 187 0 261 292
 292 64 48 180 0 152 +17 152 0 111 90 33 64 292 149 0 0 +17 90 0 111 102 152 88
 66 118 0 156 -17 66 0 290 48 156 64 90 118 0 187 +17 156 0 290 66 92 88 237 154
 0 115 +17 237 0 234 235 115 52 156 154 0 175 -17 115 0 234 237 117 88 102 116 0
 0 -17 117 0 234 115 214 85 100 159 0 0 -17 214 0 234 117 232 82 163 161 0 0 -17
 163 0 215 60 84 79 214 161 0 232 +17 72 0 288 175 241 49 211 173 0 172 -79 27 2
81 SolidEdge/MNKR_ATTR_TYPE_EX15 255 388 0 272 246 279 17 130 0 262 130 130 0 40
0 123 0 0 +17 400 0 113 400 400 0 130 123 0 0 -15 113 283 0 400 112 0 133 20 336
 0 194 197 7 0 +7 -.00820922583100014 -.00299936847613628 .00635 -.0082092258310
0014 -.00299936847613628 0 0 .00635 17 63 0 218 216 43 61 95 104 0 103 +16 104 2
08 223 ?63 97 177 142 0 0 1 81 1 223 209 126 104 0 0 186 222 401 81 1 186 205 12
6 180 0 0 208 223 402 82 1 401 17 81 1 208 84 126 131 0 0 179 186 403 82 1 402 1
7 81 1 179 81 126 177 0 0 108 208 404 82 1 403 17 81 1 108 75 126 97 0 0 219 179
 405 82 1 404 17 82 1 405 17 81 1 199 63 126 176 0 0 0 220 406 82 1 227 17 82 1
 406 17 81 1 127 217 126 201 0 0 222 122 407 82 1 224 17 82 1 407 17 82 1 221 17
 141 206 197 206 206 202 133 120 321 0 101 110 184 0 +184 .00820922583100014 -.0
0299936847613627 .00635 .00820922583100014 -.00299936847613627 0 0 .00635 141 18
8 120 188 188 184 141 182 110 182 182 142 82 1 129 17 19 17 151 0 1 0 9 5 S141 2
1 20 21 21 7 74 4 CI16 index_map_offset0 0 1 dCCZ20 15 7 0 0 275 408 366 270 268
 13 2 0 0 0 0 0 0 0 0 0 0 0 0 0 81 2 408 160 409 1 0 13 0 0 410 411 81 3 13 409
 412 1 408 2 0 0 413 414 415 80 3 412 416 417 9000 0 0 0 0 3 6 0 0 0 FFTFFFFFFFF
FFF3 3 1 84 255 38 413 {3622de83-c375-4806-afee-2f802ed0eff6}84 2 414 SE82 1 415
 0 79 25 417 MONIKER/GUID_TABLE_ATTRIB80 2 409 412 418 9000 2 2 2 2 3 6 0 0 0 FF
TFFFFFFFFFFF2 3 83 255 2 410 1 3 84 19 411 SE 102.0.4.1 Type8679 22 418 MONIKER/
BODY_ID_ATTRIB80 1 12 419 420 9000 0 0 0 0 3 5 0 0 0 FFTTTTTTFFFFTF1 82 5 14 1 -
2147483639 0 0 0 79 16 420 SolidEdge/Styles1 0 
